<svg width="29" height="35" viewBox="0 0 29 35" fill="none" xmlns="http://www.w3.org/2000/svg">
<path d="M24.3426 10.2429C24.3428 7.61759 23.318 5.14687 21.457 3.28565C19.5959 1.42435 17.1248 0.399231 14.4989 0.399231C9.07109 0.399231 4.65527 4.81512 4.65527 10.2429C4.65527 15.6707 9.07109 20.0865 14.4989 20.0865C19.9267 20.0866 24.3426 15.6707 24.3426 10.2429ZM14.4989 18.2649C10.076 18.2649 6.47766 14.6658 6.47766 10.242C6.47766 9.93022 6.49847 9.60908 6.53937 9.28722C6.83149 9.71775 7.17878 10.2104 7.57199 10.7516C8.77801 12.4088 9.70483 12.7086 10.6863 13.0262C11.2717 13.2157 11.877 13.4115 12.6135 13.9566C13.119 14.3303 13.4929 14.5045 13.7899 14.5045C13.991 14.5045 14.1677 14.426 14.2871 14.2836C14.3445 14.2152 14.3867 14.1345 14.412 14.0443C14.5394 14.3826 14.6677 14.6688 14.7526 14.8492C14.8041 14.9587 14.9014 15.046 15.0145 15.0892C15.1531 15.1421 15.3984 15.3177 15.4389 15.6388C15.455 15.7672 15.4573 15.9873 15.4597 16.2206C15.4663 16.8388 15.4744 17.6082 15.7077 18.1678C15.2999 18.2321 14.8931 18.2649 14.4989 18.2649ZM17.4747 12.7297C17.345 12.6908 17.2093 12.6502 17.0695 12.607C16.5301 12.4418 16.1736 11.7535 16.0605 11.4127C16.0162 11.2796 15.9148 11.1732 15.784 11.1228C15.497 11.0125 15.2494 10.9589 15.0265 10.9589C14.657 10.9589 14.3548 11.1154 14.1747 11.3997C13.9763 11.7134 13.9373 12.1972 14.0591 12.8373C13.7183 12.3502 13.2792 12.0594 12.8847 12.0594H12.8718C12.5764 12.0594 12.083 11.2424 11.8383 10.5111L11.8375 10.5088C11.7535 10.2159 11.6243 9.3699 12.0312 8.97653C12.1776 8.83462 12.2443 8.83071 12.2449 8.83071C12.2763 8.83071 12.3553 8.8732 12.4337 8.91666C12.5683 8.99144 12.7935 9.11661 13.0722 9.11661C13.1465 9.11661 13.2211 9.10768 13.2953 9.0899C13.6357 9.00667 13.9268 8.77323 14.1148 8.43264C14.3535 8.001 14.3964 7.44498 14.2302 6.94637C14.2167 6.90587 14.2022 6.86872 14.1855 6.83244C14.2906 6.80486 14.4038 6.77695 14.525 6.74881C15.1016 6.61559 15.877 6.36772 15.953 5.75677C16.0202 5.21982 15.4953 4.87053 15.2665 4.74544C15.1388 4.6756 14.9864 4.66906 14.8535 4.72719C14.8133 4.74481 14.5993 4.83235 14.323 4.83235C14.0798 4.83235 13.8682 4.76697 13.6768 4.63311C13.4775 4.49311 13.2874 4.4251 13.0959 4.4251C12.927 4.4251 12.7711 4.47764 12.6192 4.58567H12.6192C12.5615 4.49797 12.4961 4.38476 12.4249 4.24915C12.0876 3.60743 11.523 3.23901 10.7469 3.15418C11.9056 2.53542 13.1681 2.22178 14.499 2.22178C16.6678 2.22178 18.6993 3.07732 20.2193 4.6308C19.2868 4.87635 18.6706 5.37999 18.437 6.08764L17.3923 7.28776C16.5952 8.22933 16.7963 9.05992 16.9871 9.47115C17.3124 10.1728 18.0832 10.697 18.5552 10.697C18.6205 10.697 18.6832 10.6877 18.7405 10.6697C18.8194 10.645 18.8988 10.6099 18.9683 10.5791C19.0885 10.5262 19.2125 10.4716 19.3031 10.4716C19.3781 10.4716 19.498 10.5436 19.6428 10.8853C19.8664 11.4184 19.9786 12.3102 20.0686 13.0266C20.0848 13.1551 20.0996 13.2719 20.1139 13.3806C19.8629 13.2661 19.5495 13.2515 19.3047 13.2515C19.1187 13.2515 18.9309 13.2623 18.7716 13.273C18.5856 13.0682 18.2431 12.9593 17.4856 12.7328L17.4747 12.7297ZM18.1764 17.3599L18.3896 17.0565C18.5886 16.8058 19.0393 16.2119 19.1436 15.8521C19.1812 15.7979 19.3038 15.6851 19.4267 15.574C19.6987 15.3273 20.0713 14.9896 20.363 14.5076C20.3915 14.564 20.4227 14.6124 20.4578 14.6545C20.5862 14.8093 20.7664 14.8946 20.9648 14.8946C20.9845 14.8946 21.0046 14.8937 21.0223 14.8922C20.2853 15.925 19.3012 16.7783 18.1764 17.3599Z" fill="white"/>
<path d="M11.9068 29.9177C11.7801 29.6078 11.6384 29.301 11.4854 29.0055C10.4838 27.0705 9.1084 25.779 7.77784 24.53C7.40289 24.1781 6.9254 23.6279 6.41978 23.0451C5.68167 22.1947 4.91837 21.3155 4.40557 20.9801C3.94084 20.6762 3.5611 20.6679 3.27664 20.9552C2.8619 21.3742 2.98428 22.155 3.67352 23.4865C4.1341 24.3765 4.80197 25.4247 5.50914 26.5345C5.62275 26.7127 5.7382 26.8942 5.85436 27.0771C4.60193 25.7073 3.68221 24.4614 3.11623 23.3681C2.4663 22.1127 2.33411 21.1425 2.74415 20.6366C3.03371 20.2794 3.58486 20.1905 4.29602 20.3867L4.40142 20.4157L4.37599 20.3092C4.36275 20.2542 3.04862 14.7793 2.77101 13.7431C2.70994 13.5146 2.62488 13.2943 2.51828 13.0884C2.13551 12.349 1.53055 11.8999 1.07978 12.0209C0.862282 12.0794 0.503911 12.3265 0.551109 13.3282L1.2354 21.9707C1.27048 22.2528 1.29512 22.5484 1.32127 22.8618C1.40107 23.8192 1.48375 24.8093 1.87561 25.5663C2.03857 25.8813 2.22752 26.1659 2.45283 26.4359C2.85871 26.9223 3.98764 28.097 5.18282 29.3403C6.34627 30.551 7.5495 31.8026 7.9888 32.3252C8.33345 32.7354 8.63179 33.1873 8.90087 33.7074C9.11764 34.1261 9.2995 34.5582 9.46198 35.0001H13.6672L13.604 34.7854C13.0988 33.0688 12.5436 31.4764 11.9068 29.9177Z" fill="white"/>
<path d="M27.9175 12.0209C27.4668 11.8999 26.8619 12.349 26.4791 13.0884C26.3726 13.2943 26.2875 13.5146 26.2263 13.7431C25.9488 14.7793 24.6346 20.2542 24.6214 20.3092L24.5961 20.4157L24.7013 20.3867C25.4126 20.1905 25.9636 20.2793 26.2533 20.6366C26.6634 21.1425 26.5311 22.1127 25.8812 23.3681C25.3151 24.4614 24.3955 25.7073 23.143 27.0771C23.2593 26.8942 23.3746 26.7128 23.4883 26.5345C24.1954 25.4247 24.8633 24.3765 25.3238 23.4865C26.013 22.155 26.1354 21.3742 25.7207 20.9552C25.4363 20.6679 25.0565 20.6763 24.5917 20.9801C24.0789 21.3155 23.3156 22.1948 22.5775 23.0451C22.0718 23.6279 21.5943 24.1781 21.2194 24.53C19.8889 25.779 18.5134 27.0704 17.5118 29.0055C17.3589 29.301 17.2171 29.6078 17.0904 29.9177C16.4537 31.4764 15.8984 33.0687 15.3932 34.7856L15.3301 35.0003H19.5353C19.6977 34.5584 19.8796 34.1263 20.0964 33.7075C20.3654 33.1876 20.6638 32.7355 21.0084 32.3254C21.4478 31.8026 22.651 30.551 23.8143 29.3405C25.0095 28.0972 26.1385 26.9225 26.5444 26.4361C26.7698 26.166 26.9587 25.8815 27.1216 25.5665C27.5136 24.8095 27.5962 23.8194 27.676 22.8619C27.7023 22.5485 27.7268 22.253 27.7619 21.9708L28.4462 13.3284C28.4933 12.3265 28.135 12.0793 27.9175 12.0209Z" fill="white"/>
</svg>
