<svg width="229" height="46" viewBox="0 0 229 46" fill="none" xmlns="http://www.w3.org/2000/svg">
<path d="M220.06 14.6948C221.672 14.6948 223.081 15.0144 224.287 15.6535C225.492 16.2925 226.422 17.1931 227.076 18.3551C227.744 19.5025 228.078 20.8315 228.078 22.3421C228.078 23.8381 227.744 25.1672 227.076 26.3291C226.422 27.4911 225.485 28.3917 224.265 29.0307C223.059 29.6698 221.658 29.9894 220.06 29.9894H214.33V14.6948H220.06ZM219.82 26.7649C221.229 26.7649 222.326 26.38 223.11 25.6102C223.895 24.8404 224.287 23.751 224.287 22.3421C224.287 20.9332 223.895 19.8366 223.11 19.0522C222.326 18.2679 221.229 17.8757 219.82 17.8757H218.056V26.7649H219.82Z" fill="#033498"/>
<path d="M207.918 29.9894L204.737 24.2158H203.844V29.9894H200.118V14.6948H206.371C207.577 14.6948 208.601 14.9054 209.443 15.3266C210.3 15.7479 210.939 16.3289 211.36 17.0696C211.782 17.7959 211.992 18.6092 211.992 19.5098C211.992 20.5265 211.702 21.4343 211.121 22.2332C210.554 23.032 209.712 23.5985 208.593 23.9326L212.123 29.9894H207.918ZM203.844 21.5795H206.153C206.836 21.5795 207.344 21.4125 207.678 21.0784C208.027 20.7444 208.201 20.2723 208.201 19.6623C208.201 19.0813 208.027 18.6238 207.678 18.2897C207.344 17.9556 206.836 17.7886 206.153 17.7886H203.844V21.5795Z" fill="#033498"/>
<path d="M190.224 30.142C188.786 30.142 187.464 29.8079 186.258 29.1398C185.067 28.4716 184.116 27.5421 183.404 26.351C182.707 25.1455 182.358 23.7947 182.358 22.2986C182.358 20.8026 182.707 19.459 183.404 18.268C184.116 17.077 185.067 16.1474 186.258 15.4793C187.464 14.8111 188.786 14.4771 190.224 14.4771C191.661 14.4771 192.976 14.8111 194.167 15.4793C195.373 16.1474 196.317 17.077 196.999 18.268C197.697 19.459 198.045 20.8026 198.045 22.2986C198.045 23.7947 197.697 25.1455 196.999 26.351C196.302 27.5421 195.358 28.4716 194.167 29.1398C192.976 29.8079 191.661 30.142 190.224 30.142ZM190.224 26.7432C191.444 26.7432 192.417 26.3365 193.143 25.5231C193.884 24.7097 194.254 23.6349 194.254 22.2986C194.254 20.9478 193.884 19.873 193.143 19.0741C192.417 18.2607 191.444 17.8541 190.224 17.8541C188.989 17.8541 188.001 18.2535 187.26 19.0523C186.534 19.8512 186.171 20.9333 186.171 22.2986C186.171 23.6494 186.534 24.7315 187.26 25.5449C188.001 26.3438 188.989 26.7432 190.224 26.7432Z" fill="#033498"/>
<path d="M181.122 14.6948L177.135 29.9894H172.625L170.185 19.9237L167.658 29.9894H163.148L159.27 14.6948H163.257L165.457 25.828L168.18 14.6948H172.276L174.891 25.828L177.113 14.6948H181.122Z" fill="#033498"/>
<path d="M153.501 14.6948V17.6797H147.27V20.9041H151.932V23.8018H147.27V29.9894H143.544V14.6948H153.501Z" fill="#033498"/>
<path d="M133.649 30.142C132.211 30.142 130.89 29.8079 129.684 29.1398C128.493 28.4716 127.542 27.5421 126.83 26.351C126.133 25.1455 125.784 23.7947 125.784 22.2986C125.784 20.8026 126.133 19.459 126.83 18.268C127.542 17.077 128.493 16.1474 129.684 15.4793C130.89 14.8111 132.211 14.4771 133.649 14.4771C135.087 14.4771 136.402 14.8111 137.593 15.4793C138.798 16.1474 139.742 17.077 140.425 18.268C141.122 19.459 141.471 20.8026 141.471 22.2986C141.471 23.7947 141.122 25.1455 140.425 26.351C139.728 27.5421 138.784 28.4716 137.593 29.1398C136.402 29.8079 135.087 30.142 133.649 30.142ZM133.649 26.7432C134.869 26.7432 135.843 26.3365 136.569 25.5231C137.31 24.7097 137.68 23.6349 137.68 22.2986C137.68 20.9478 137.31 19.873 136.569 19.0741C135.843 18.2607 134.869 17.8541 133.649 17.8541C132.415 17.8541 131.427 18.2535 130.686 19.0523C129.96 19.8512 129.597 20.9333 129.597 22.2986C129.597 23.6494 129.96 24.7315 130.686 25.5449C131.427 26.3438 132.415 26.7432 133.649 26.7432Z" fill="#033498"/>
<path d="M119.11 14.6948V29.9894H115.384V23.6929H109.589V29.9894H105.863V14.6948H109.589V20.6863H115.384V14.6948H119.11Z" fill="#033498"/>
<path d="M88.6357 22.3204C88.6357 20.8098 88.9626 19.4663 89.6162 18.2898C90.2698 17.0988 91.1776 16.1765 92.3396 15.5228C93.5161 14.8547 94.8451 14.5206 96.3266 14.5206C98.1422 14.5206 99.6963 14.9999 100.989 15.9586C102.282 16.9172 103.146 18.2244 103.582 19.8803H99.4857C99.1807 19.2412 98.745 18.7546 98.1785 18.4205C97.6266 18.0865 96.9947 17.9194 96.283 17.9194C95.1356 17.9194 94.206 18.3188 93.4943 19.1177C92.7826 19.9166 92.4267 20.9841 92.4267 22.3204C92.4267 23.6567 92.7826 24.7243 93.4943 25.5231C94.206 26.322 95.1356 26.7214 96.283 26.7214C96.9947 26.7214 97.6266 26.5544 98.1785 26.2203C98.745 25.8862 99.1807 25.3997 99.4857 24.7606H103.582C103.146 26.4164 102.282 27.7236 100.989 28.6823C99.6963 29.6264 98.1422 30.0984 96.3266 30.0984C94.8451 30.0984 93.5161 29.7716 92.3396 29.118C91.1776 28.4499 90.2698 27.5275 89.6162 26.351C88.9626 25.1745 88.6357 23.831 88.6357 22.3204Z" fill="#033498"/>
<path d="M77.5664 14.6948V23.8454C77.5664 24.7605 77.7915 25.4649 78.2418 25.9588C78.6921 26.4526 79.353 26.6995 80.2244 26.6995C81.0959 26.6995 81.7641 26.4526 82.2289 25.9588C82.6936 25.4649 82.926 24.7605 82.926 23.8454V14.6948H86.6516V23.8236C86.6516 25.1889 86.3611 26.3437 85.7802 27.2878C85.1992 28.2319 84.4148 28.9436 83.4271 29.4229C82.454 29.9022 81.3646 30.1419 80.1591 30.1419C78.9535 30.1419 77.8714 29.9095 76.9128 29.4447C75.9687 28.9654 75.2207 28.2537 74.6687 27.3096C74.1168 26.3509 73.8408 25.1889 73.8408 23.8236V14.6948H77.5664Z" fill="#033498"/>
<path d="M64.0116 30.142C62.5737 30.142 61.2519 29.8079 60.0464 29.1398C58.8553 28.4716 57.904 27.5421 57.1923 26.351C56.4951 25.1455 56.1465 23.7947 56.1465 22.2986C56.1465 20.8026 56.4951 19.459 57.1923 18.268C57.904 17.077 58.8553 16.1474 60.0464 15.4793C61.2519 14.8111 62.5737 14.4771 64.0116 14.4771C65.4496 14.4771 66.7641 14.8111 67.9551 15.4793C69.1607 16.1474 70.1048 17.077 70.7874 18.268C71.4846 19.459 71.8332 20.8026 71.8332 22.2986C71.8332 23.7947 71.4846 25.1455 70.7874 26.351C70.0902 27.5421 69.1461 28.4716 67.9551 29.1398C66.7641 29.8079 65.4496 30.142 64.0116 30.142ZM64.0116 26.7432C65.2317 26.7432 66.2049 26.3365 66.9311 25.5231C67.6719 24.7097 68.0422 23.6349 68.0422 22.2986C68.0422 20.9478 67.6719 19.873 66.9311 19.0741C66.2049 18.2607 65.2317 17.8541 64.0116 17.8541C62.777 17.8541 61.7893 18.2535 61.0486 19.0523C60.3223 19.8512 59.9592 20.9333 59.9592 22.2986C59.9592 23.6494 60.3223 24.7315 61.0486 25.5449C61.7893 26.3438 62.777 26.7432 64.0116 26.7432Z" fill="#033498"/>
<path d="M54.9085 14.6948V17.6797H50.8561V29.9894H47.1305V17.6797H43.0781V14.6948H54.9085Z" fill="#033498"/>
<path fill-rule="evenodd" clip-rule="evenodd" d="M10.9165 0.61326C10.9165 0.951886 11.191 1.2264 11.5297 1.2264H11.5298C12.0692 3.18824 11.4684 4.53702 11.1005 4.96619C9.33466 4.96619 5.37788 6.15158 3.62022 6.74428C2.25052 5.81642 1.773 4.35458 1.67678 3.55079C1.97756 3.51155 2.20983 3.25432 2.20983 2.94284C2.20983 2.60422 1.93532 2.3297 1.59669 2.3297C1.25806 2.3297 0.983553 2.60422 0.983553 2.94284C0.983553 3.18757 1.12693 3.3988 1.33427 3.49713C1.28213 4.78875 2.57018 6.34636 3.25234 6.98953C2.76183 6.98953 1.24942 7.68442 0.554533 8.03187C0.309278 8.32617 0.452343 8.39975 0.554533 8.39975C1.82986 8.5469 3.62022 9.27858 4.35599 9.62603C5.38606 8.49785 12.2246 5.92676 15.5151 4.78224C14.9755 4.63508 12.5925 4.7618 11.4684 4.84355C12.2041 3.81348 11.9793 2.00268 11.775 1.22604H11.5508C11.8796 1.21492 12.1428 0.944826 12.1428 0.61326C12.1428 0.274633 11.8683 0.00012207 11.5297 0.00012207C11.191 0.00012207 10.9165 0.274633 10.9165 0.61326ZM18.3355 5.39539C19.153 6.90779 20.8862 10.6929 21.2786 13.7341C21.4217 14.3063 21.4625 15.6103 20.4815 16.2479C17.4976 17.5764 11.0514 20.2456 9.13846 20.2946C8.5662 20.5808 7.28678 20.7974 6.74722 19.3749L4.35599 11.956C4.11073 11.4041 3.86548 10.1288 4.8465 9.44209C5.15306 9.13553 7.71598 7.81115 15.5151 4.96619C16.2213 4.63918 17.7741 4.26721 18.3355 5.39539ZM17.2319 7.23479C18.3601 9.39303 19.337 12.4669 19.6844 13.7341C20.0073 14.8132 19.2876 15.3691 18.8873 15.5121L10.0582 18.5778C9.27335 18.8231 8.70926 18.353 8.52532 18.0873C7.10284 14.5557 6.6246 12.3238 6.56328 11.6494C6.41613 10.6684 7.19686 10.0961 7.60562 9.93259L15.8217 6.80559C16.6555 6.46224 17.1093 6.94866 17.2319 7.23479ZM0.125338 9.0742C-0.365173 7.94603 2.65964 9.09464 4.23336 9.80997C3.89 10.1676 3.96767 11.1852 4.04942 11.6494L6.74722 19.8654C6.94343 20.2578 7.44211 20.5603 7.66693 20.6625C7.51978 21.104 6.74722 21.9501 6.37934 22.318C5.39832 23.5442 4.62168 22.5837 4.35599 21.9501L1.35161 14.1019L0.309278 10.5457C0.260227 10.2514 0.166214 9.44208 0.125338 9.0742ZM4.66256 16.3092C4.47861 15.6348 4.02489 14.2 3.68154 13.8567C3.57935 13.6727 3.31365 13.3294 3.0684 13.4275C2.82314 13.5256 2.84358 13.918 2.88446 14.1019C2.90489 14.6742 3.11745 16.0762 3.80416 17.1063C3.9881 17.4333 4.4173 18.0383 4.66256 17.8421C4.74236 17.5968 4.85408 16.9469 4.66256 16.3092ZM20.9107 16.3092C18.6217 17.4333 12.7928 19.8899 7.78956 20.7238C7.52386 21.2552 6.75949 22.4529 5.82752 22.9924C7.40124 22.8698 12.0202 22.0727 17.9063 19.8654C18.6625 19.5384 20.3221 18.3694 20.9107 16.3092ZM17.1092 20.2946C15.372 20.9282 11.1005 22.3302 7.91219 22.8698C7.72824 26.2829 7.26226 33.5629 6.86985 35.3778C6.60416 37.1763 5.96241 41.129 5.52095 42.5515C5.07131 44.534 5.36153 47.2114 10.1195 42.061L12.1428 38.9953C12.6333 37.9734 14.0803 36.5428 15.9443 38.9953C16.7005 40.0376 18.3478 42.3308 18.8873 43.1646C19.4392 44.1048 20.69 45.2003 21.2786 42.061C21.5852 40.5282 22.0144 36.6777 21.2786 33.5384C20.6246 30.4523 18.8751 23.4829 17.1092 20.2946ZM15.1472 24.28C16.0301 24.1329 16.2508 24.8318 16.2508 25.1997C15.9634 25.9388 15.4836 25.798 15.1426 25.698C14.9745 25.6486 14.8401 25.6092 14.7793 25.6902C14.708 25.7854 14.9135 26.5358 15.1631 27.4474C15.5569 28.8854 16.0605 30.7243 15.7603 31.0245C15.3456 31.4392 14.4051 31.3718 13.976 31.3411H13.976H13.976C13.8975 31.3355 13.8362 31.3311 13.7983 31.3311C13.6021 31.3311 13.7166 27.5705 13.7983 25.6902L13.1852 25.9355C12.8418 26.6712 12.2246 26.4464 11.9589 26.2421V25.445C11.9589 25.0526 12.3268 24.8318 12.5107 24.7705C13.0217 24.6683 14.2643 24.4272 15.1472 24.28ZM7.60562 23.6669L7.29904 29.2464C5.60269 30.0639 1.84211 31.6254 0.370583 31.3311C0.104889 31.3107 -0.279343 31.1839 0.309269 30.8406C2.18956 29.4304 6.28125 26.0213 7.60562 23.6669ZM19.6231 25.9355L17.9063 21.5209C22.0757 24.6077 28.6774 21.8275 30.5781 20.7238C27.9416 25.445 21.4625 26.4669 19.6231 25.9355ZM10.9166 11.2815C11.1618 11.4286 11.7136 12.5282 11.9589 13.0596C12.057 13.403 11.9998 13.8976 11.9589 14.1019C11.6646 14.2981 11.264 14.0202 11.1005 13.8567C10.8552 13.6114 10.3852 12.4873 10.1808 11.956C10.0827 11.3183 10.2217 11.0771 10.3034 11.0362C10.4996 10.84 10.7939 11.118 10.9166 11.2815ZM14.7793 13.734L15.0246 13.4275C15.1472 13.2844 15.417 13.17 15.5151 13.8567C15.5151 14.245 15.4783 15.0707 15.3312 15.2669C15.1472 15.5121 14.718 15.5121 14.4114 15.1443L13.7983 14.2246C13.7166 14.0611 13.6512 13.7586 14.0436 13.8567C14.5341 13.9793 14.6812 13.8567 14.7793 13.734ZM15.9443 10.1778C16.1405 10.3741 16.5574 11.445 16.7414 11.956L16.864 12.6304C16.864 13.17 16.4961 13.1413 16.3122 13.0596C16.116 13.0105 15.7808 12.5078 15.6377 12.2625L14.9633 10.6684C14.8161 9.98164 15.0246 9.68734 15.1472 9.62603C15.4906 9.52792 15.8217 9.95303 15.9443 10.1778Z" fill="#033498"/>
<path fill-rule="evenodd" clip-rule="evenodd" d="M35.3969 25.3263L32.8968 20.6709C32.5104 21.1328 31.6407 21.3229 31.2541 21.3603C31.1012 21.2644 30.1797 19.7501 29.7381 19.0049L30.6639 20.7302L33.9161 26.1309L35.8162 28.3394L36.7469 29.4704L35.3969 25.3263ZM35.3104 25.491C35.2136 25.783 34.844 26.3032 34.1397 26.0476C34.3952 26.0786 34.9869 26.0106 35.3104 25.491ZM36.2141 28.1055C36.2018 28.1829 36.1184 28.3283 35.884 28.2908C35.9653 28.2839 36.145 28.2373 36.2141 28.1055Z" fill="#033498"/>
<path fill-rule="evenodd" clip-rule="evenodd" d="M31.2773 21.2152C31.722 21.1276 32.6478 20.875 32.7935 20.5651C31.3267 18.4655 28.1321 13.7188 27.0885 11.5283C27.1313 11.1979 27.3964 10.7681 28.1138 11.6923L27.1327 9.74987L27.2092 10.7739L26.7936 9.4278L25.5409 7.67994L26.0905 9.3153C25.6752 8.4057 24.6849 6.38241 24.0463 5.56605C23.854 5.70391 23.4597 6.11496 23.4212 6.65634C23.7491 6.79808 24.4935 7.20287 24.8485 7.68819C24.5341 7.39982 23.7964 6.86517 23.3608 7.03354C23.2219 7.33865 22.9754 8.09077 23.1009 8.6584C23.5156 8.69501 24.6957 9.05642 26.0977 10.2092C25.5777 9.82842 24.2917 9.02749 23.3074 8.86999C23.2768 9.31147 23.5778 10.5976 25.0264 12.2101C25.4599 12.7556 26.473 14.0604 27.0573 14.9157C27.6007 15.5879 28.8525 17.1789 29.5119 18.1652C29.7141 18.6539 30.3504 19.948 31.2773 21.2152ZM28.7889 14.9845L26.9121 12.6309L28.4081 14.9235L27.5846 15.0001L30.4976 17.6385L28.2352 15.253L28.7889 14.9845Z" fill="#033498"/>
</svg>
