<svg width="345" height="68" viewBox="0 0 345 68" fill="none" xmlns="http://www.w3.org/2000/svg">
<path d="M332.238 22.1855C334.672 22.1855 336.799 22.668 338.619 23.6328C340.439 24.5977 341.843 25.9573 342.829 27.7116C343.838 29.444 344.343 31.4505 344.343 33.7311C344.343 35.9897 343.838 37.9962 342.829 39.7505C341.843 41.5048 340.428 42.8644 338.586 43.8293C336.766 44.7941 334.65 45.2766 332.238 45.2766H323.587V22.1855H332.238ZM331.876 40.4084C334.003 40.4084 335.659 39.8273 336.843 38.665C338.027 37.5028 338.619 35.8582 338.619 33.7311C338.619 31.604 338.027 29.9483 336.843 28.7642C335.659 27.58 334.003 26.988 331.876 26.988H329.212V40.4084H331.876Z" fill="white"/>
<path d="M313.905 45.2766L309.102 36.5599H307.754V45.2766H302.129V22.1855H311.569C313.389 22.1855 314.935 22.5035 316.207 23.1394C317.501 23.7754 318.466 24.6525 319.102 25.7709C319.738 26.8673 320.056 28.0954 320.056 29.4549C320.056 30.99 319.617 32.3605 318.74 33.5666C317.885 34.7727 316.613 35.6279 314.924 36.1323L320.253 45.2766H313.905ZM307.754 32.5798H311.24C312.271 32.5798 313.038 32.3276 313.543 31.8233C314.069 31.3189 314.332 30.6062 314.332 29.6852C314.332 28.808 314.069 28.1173 313.543 27.6129C313.038 27.1086 312.271 26.8564 311.24 26.8564H307.754V32.5798Z" fill="white"/>
<path d="M287.192 45.5071C285.021 45.5071 283.025 45.0028 281.205 43.9941C279.407 42.9853 277.971 41.5819 276.896 39.7837C275.844 37.9636 275.317 35.9243 275.317 33.6656C275.317 31.4069 275.844 29.3785 276.896 27.5803C277.971 25.7822 279.407 24.3787 281.205 23.37C283.025 22.3613 285.021 21.8569 287.192 21.8569C289.363 21.8569 291.347 22.3613 293.145 23.37C294.966 24.3787 296.391 25.7822 297.422 27.5803C298.474 29.3785 299 31.4069 299 33.6656C299 35.9243 298.474 37.9636 297.422 39.7837C296.369 41.5819 294.944 42.9853 293.145 43.9941C291.347 45.0028 289.363 45.5071 287.192 45.5071ZM287.192 40.3758C289.034 40.3758 290.503 39.7618 291.6 38.5338C292.718 37.3058 293.277 35.683 293.277 33.6656C293.277 31.6262 292.718 30.0035 291.6 28.7974C290.503 27.5694 289.034 26.9554 287.192 26.9554C285.328 26.9554 283.837 27.5584 282.718 28.7645C281.622 29.9706 281.074 31.6043 281.074 33.6656C281.074 35.705 281.622 37.3387 282.718 38.5667C283.837 39.7728 285.328 40.3758 287.192 40.3758Z" fill="white"/>
<path d="M273.451 22.1855L267.431 45.2766H260.623L256.938 30.0799L253.123 45.2766H246.314L240.459 22.1855H246.478L249.801 38.994L253.912 22.1855H260.096L264.043 38.994L267.399 22.1855H273.451Z" fill="white"/>
<path d="M231.748 22.1855V26.6919H222.341V31.5601H229.38V35.9349H222.341V45.2766H216.716V22.1855H231.748Z" fill="white"/>
<path d="M201.779 45.5071C199.608 45.5071 197.612 45.0028 195.792 43.9941C193.994 42.9853 192.558 41.5819 191.483 39.7837C190.431 37.9636 189.904 35.9243 189.904 33.6656C189.904 31.4069 190.431 29.3785 191.483 27.5803C192.558 25.7822 193.994 24.3787 195.792 23.37C197.612 22.3613 199.608 21.8569 201.779 21.8569C203.95 21.8569 205.934 22.3613 207.732 23.37C209.552 24.3787 210.978 25.7822 212.009 27.5803C213.061 29.3785 213.587 31.4069 213.587 33.6656C213.587 35.9243 213.061 37.9636 212.009 39.7837C210.956 41.5819 209.531 42.9853 207.732 43.9941C205.934 45.0028 203.95 45.5071 201.779 45.5071ZM201.779 40.3758C203.621 40.3758 205.09 39.7618 206.186 38.5338C207.305 37.3058 207.864 35.683 207.864 33.6656C207.864 31.6262 207.305 30.0035 206.186 28.7974C205.09 27.5694 203.621 26.9554 201.779 26.9554C199.915 26.9554 198.424 27.5584 197.305 28.7645C196.209 29.9706 195.661 31.6043 195.661 33.6656C195.661 35.705 196.209 37.3387 197.305 38.5667C198.424 39.7728 199.915 40.3758 201.779 40.3758Z" fill="white"/>
<path d="M179.826 22.1855V45.2766H174.201V35.7704H165.452V45.2766H159.827V22.1855H165.452V31.2312H174.201V22.1855H179.826Z" fill="white"/>
<path d="M133.818 33.6986C133.818 31.418 134.312 29.3896 135.299 27.6134C136.285 25.8152 137.656 24.4227 139.41 23.4359C141.186 22.4272 143.193 21.9229 145.43 21.9229C148.171 21.9229 150.517 22.6465 152.469 24.0938C154.42 25.5411 155.725 27.5147 156.383 30.0146H150.199C149.739 29.0497 149.081 28.3151 148.226 27.8107C147.392 27.3064 146.438 27.0542 145.364 27.0542C143.631 27.0542 142.228 27.6572 141.154 28.8633C140.079 30.0694 139.542 31.6812 139.542 33.6986C139.542 35.7161 140.079 37.3278 141.154 38.5339C142.228 39.74 143.631 40.343 145.364 40.343C146.438 40.343 147.392 40.0909 148.226 39.5865C149.081 39.0821 149.739 38.3475 150.199 37.3827H156.383C155.725 39.8825 154.42 41.8561 152.469 43.3034C150.517 44.7288 148.171 45.4415 145.43 45.4415C143.193 45.4415 141.186 44.9481 139.41 43.9613C137.656 42.9526 136.285 41.5601 135.299 39.7839C134.312 38.0076 133.818 35.9792 133.818 33.6986Z" fill="white"/>
<path d="M117.107 22.1855V36.0007C117.107 37.3822 117.447 38.4458 118.127 39.1913C118.807 39.9369 119.804 40.3097 121.12 40.3097C122.436 40.3097 123.445 39.9369 124.146 39.1913C124.848 38.4458 125.199 37.3822 125.199 36.0007V22.1855H130.824V35.9678C130.824 38.0291 130.385 39.7724 129.508 41.1978C128.631 42.6232 127.447 43.6977 125.955 44.4214C124.486 45.145 122.842 45.5068 121.021 45.5068C119.201 45.5068 117.568 45.156 116.12 44.4542C114.695 43.7306 113.566 42.6561 112.732 41.2307C111.899 39.7834 111.482 38.0291 111.482 35.9678V22.1855H117.107Z" fill="white"/>
<path d="M96.642 45.5071C94.4711 45.5071 92.4756 45.0028 90.6555 43.9941C88.8573 42.9853 87.421 41.5819 86.3465 39.7837C85.2939 37.9636 84.7676 35.9243 84.7676 33.6656C84.7676 31.4069 85.2939 29.3785 86.3465 27.5803C87.421 25.7822 88.8573 24.3787 90.6555 23.37C92.4756 22.3613 94.4711 21.8569 96.642 21.8569C98.813 21.8569 100.798 22.3613 102.596 23.37C104.416 24.3787 105.841 25.7822 106.872 27.5803C107.924 29.3785 108.451 31.4069 108.451 33.6656C108.451 35.9243 107.924 37.9636 106.872 39.7837C105.819 41.5819 104.394 42.9853 102.596 43.9941C100.798 45.0028 98.813 45.5071 96.642 45.5071ZM96.642 40.3758C98.484 40.3758 99.9533 39.7618 101.05 38.5338C102.168 37.3058 102.727 35.683 102.727 33.6656C102.727 31.6262 102.168 30.0035 101.05 28.7974C99.9533 27.5694 98.484 26.9554 96.642 26.9554C94.7781 26.9554 93.2869 27.5584 92.1685 28.7645C91.0721 29.9706 90.5239 31.6043 90.5239 33.6656C90.5239 35.705 91.0721 37.3387 92.1685 38.5667C93.2869 39.7728 94.7781 40.3758 96.642 40.3758Z" fill="white"/>
<path d="M82.8991 22.1855V26.6919H76.781V45.2766H71.1562V26.6919H65.0381V22.1855H82.8991Z" fill="white"/>
<path fill-rule="evenodd" clip-rule="evenodd" d="M16.4815 0.926176C16.4815 1.43742 16.8959 1.85186 17.4072 1.85186L17.4077 1.85186C18.222 4.81375 17.3149 6.85005 16.7596 7.49799C14.0936 7.49799 8.11982 9.28765 5.46618 10.1825C3.39832 8.78166 2.67736 6.57471 2.53207 5.36117C2.98627 5.30201 3.33703 4.91361 3.33703 4.44329C3.33703 3.93204 2.92258 3.5176 2.41134 3.5176C1.9001 3.5176 1.48565 3.93204 1.48565 4.44329C1.48565 4.81269 1.70203 5.13155 2.01495 5.28005C1.93621 7.23009 3.88088 9.58171 4.91077 10.5527C4.17022 10.5527 1.88685 11.6019 0.837738 12.1264C0.467464 12.5707 0.683456 12.6818 0.837738 12.6818C2.76317 12.904 5.46618 14.0086 6.577 14.5332C8.13216 12.8299 18.4567 8.94822 23.4245 7.22027C22.6099 6.9981 19.0121 7.18941 17.315 7.31284C18.4258 5.75769 18.0864 3.02382 17.7778 1.85128H17.4402C17.9362 1.83387 18.3329 1.42635 18.3329 0.926176C18.3329 0.414933 17.9184 0.000488281 17.4072 0.000488281C16.8959 0.000488281 16.4815 0.414933 16.4815 0.926176ZM27.6827 8.14597C28.9169 10.4293 31.5336 16.1439 32.126 20.7353C32.342 21.5993 32.4037 23.5679 30.9226 24.5306C26.4176 26.5363 16.6855 30.5661 13.7974 30.6402C12.9334 31.0722 11.0018 31.3992 10.1872 29.2516L6.577 18.0508C6.20673 17.2177 5.83645 15.2923 7.31755 14.2555C7.7804 13.7927 11.6498 11.7932 23.4245 7.49799C24.4907 7.00429 26.835 6.44271 27.6827 8.14597ZM26.0164 10.923C27.7197 14.1814 29.1946 18.8222 29.7192 20.7353C30.2067 22.3645 29.1201 23.2038 28.5158 23.4198L15.1859 28.0482C14.001 28.4185 13.1494 27.7088 12.8717 27.3077C10.7241 21.9757 10.002 18.6062 9.90948 17.588C9.68731 16.1069 10.866 15.2429 11.4831 14.996L23.8874 10.275C25.1463 9.75666 25.8313 10.491 26.0164 10.923ZM0.189758 13.7001C-0.550793 11.9968 4.01593 13.7309 6.39186 14.8109C5.87348 15.3508 5.99073 16.8872 6.11416 17.588L10.1872 29.9922C10.4834 30.5846 11.2363 31.0413 11.5757 31.1956C11.3536 31.8621 10.1872 33.1395 9.63177 33.6949C8.15067 35.5463 6.97814 34.0961 6.577 33.1395L2.04113 21.2907L0.467464 15.9217C0.39341 15.4774 0.251472 14.2555 0.189758 13.7001ZM7.03985 24.6232C6.76214 23.6049 6.07713 21.4388 5.55875 20.9204C5.40447 20.6427 5.00333 20.1244 4.63306 20.2725C4.26278 20.4206 4.29364 21.013 4.35535 21.2907C4.38621 22.1547 4.70712 24.2714 5.74389 25.8266C6.02159 26.3203 6.66957 27.2336 7.03985 26.9374C7.16033 26.5671 7.32901 25.5859 7.03985 24.6232ZM31.5706 24.6232C28.1147 26.3203 19.3145 30.0292 11.7609 31.2882C11.3597 32.0904 10.2057 33.8986 8.79865 34.7132C11.1746 34.5281 18.1481 33.3247 27.0347 29.9922C28.1764 29.4985 30.6819 27.7335 31.5706 24.6232ZM25.8313 30.6402C23.2085 31.5967 16.7596 33.7135 11.946 34.5281C11.6683 39.6811 10.9648 50.6721 10.3723 53.4121C9.97119 56.1274 9.00231 62.095 8.33581 64.2426C7.65697 67.2357 8.09513 71.2779 15.2785 63.5021L18.3332 58.8736C19.0738 57.3308 21.2584 55.1709 24.0725 58.8736C25.2142 60.4473 27.7012 63.9094 28.5158 65.1683C29.3489 66.5877 31.2373 68.2416 32.126 63.5021C32.5888 61.1879 33.2368 55.3745 32.126 50.635C31.1386 45.9757 28.4973 35.4538 25.8313 30.6402ZM22.8691 36.6571C24.2021 36.435 24.5353 37.4903 24.5353 38.0457C24.1014 39.1615 23.3769 38.9489 22.8622 38.7979C22.6083 38.7234 22.4054 38.6639 22.3137 38.7862C22.206 38.9299 22.5162 40.0628 22.8931 41.4391C23.4877 43.6101 24.248 46.3865 23.7948 46.8397C23.1687 47.4658 21.7486 47.3641 21.1009 47.3177C20.9824 47.3092 20.8898 47.3026 20.8326 47.3026C20.5364 47.3026 20.7092 41.625 20.8326 38.7862L19.9069 39.1565C19.3885 40.2673 18.4567 39.9279 18.0555 39.6193V38.4159C18.0555 37.8235 18.6109 37.4903 18.8886 37.3977C19.66 37.2434 21.5361 36.8793 22.8691 36.6571ZM11.4831 35.7315L11.0203 44.1552C8.45922 45.3895 2.78167 47.7469 0.56002 47.3026C0.158886 47.2717 -0.421211 47.0804 0.467449 46.562C3.30624 44.4329 9.48367 39.2861 11.4831 35.7315ZM29.6266 39.1565L27.0347 32.4915C33.3294 37.1519 43.2964 32.9544 46.166 31.2882C42.1856 38.4159 32.4037 39.9588 29.6266 39.1565ZM16.4819 17.0326C16.8521 17.2547 17.6853 18.9148 18.0555 19.7171C18.2036 20.2354 18.1172 20.9822 18.0555 21.2907C17.6112 21.5869 17.0064 21.1673 16.7596 20.9204C16.3893 20.5502 15.6796 18.8531 15.371 18.0508C15.2229 17.0881 15.4327 16.724 15.5562 16.6623C15.8524 16.3661 16.2967 16.7857 16.4819 17.0326ZM22.3137 20.7353L22.684 20.2725C22.8691 20.0565 23.2764 19.8837 23.4245 20.9204C23.4245 21.5067 23.369 22.7533 23.1468 23.0495C22.8691 23.4198 22.2211 23.4198 21.7583 22.8644L20.8326 21.4759C20.7092 21.229 20.6104 20.7723 21.2029 20.9204C21.9434 21.1056 22.1656 20.9204 22.3137 20.7353ZM24.0725 15.3663C24.3687 15.6625 24.9982 17.2794 25.2759 18.0508L25.461 19.0691C25.461 19.8837 24.9056 19.8405 24.6279 19.7171C24.3317 19.643 23.8257 18.8839 23.6097 18.5137L22.5914 16.1069C22.3692 15.0701 22.684 14.6258 22.8691 14.5332C23.3875 14.3851 23.8874 15.0269 24.0725 15.3663Z" fill="white"/>
<path fill-rule="evenodd" clip-rule="evenodd" d="M53.441 38.2367L49.6664 31.2081C49.0831 31.9055 47.77 32.1926 47.1864 32.249C46.9556 32.1042 45.5643 29.818 44.8976 28.6929L46.2953 31.2977L51.2053 39.4514L54.074 42.7858L55.4792 44.4932L53.441 38.2367ZM53.3104 38.4854C53.1643 38.9262 52.6062 39.7115 51.5429 39.3258C51.9286 39.3725 52.822 39.2698 53.3104 38.4854ZM54.6748 42.4327C54.6561 42.5495 54.5303 42.769 54.1764 42.7123C54.2991 42.702 54.5704 42.6316 54.6748 42.4327Z" fill="white"/>
<path fill-rule="evenodd" clip-rule="evenodd" d="M47.2215 32.03C47.8928 31.8978 49.2905 31.5164 49.5105 31.0484C47.296 27.8786 42.473 20.7123 40.8973 17.4051C40.962 16.9063 41.3622 16.2574 42.4454 17.6528L40.964 14.7201L41.0796 16.2661L40.4521 14.2339L38.5609 11.595L39.3906 14.064C38.7636 12.6908 37.2685 9.63608 36.3044 8.40357C36.0141 8.6117 35.4188 9.2323 35.3606 10.0497C35.8556 10.2636 36.9796 10.8748 37.5155 11.6075C37.0409 11.1721 35.9271 10.3649 35.2695 10.6191C35.0597 11.0798 34.6875 12.2153 34.877 13.0723C35.5032 13.1275 37.2848 13.6732 39.4015 15.4136C38.6165 14.8387 36.6749 13.6295 35.1888 13.3917C35.1426 14.0582 35.597 15.9999 37.7841 18.4345C38.4386 19.2581 39.9681 21.228 40.8502 22.5193C41.6707 23.5341 43.5605 25.9361 44.5561 27.4253C44.8614 28.163 45.822 30.1168 47.2215 32.03ZM43.4646 22.6231L40.631 19.0697L42.8896 22.5311L41.6463 22.6467L46.0442 26.63L42.6286 23.0285L43.4646 22.6231Z" fill="white"/>
</svg>
