<svg width="32" height="27" viewBox="0 0 32 27" fill="none" xmlns="http://www.w3.org/2000/svg">
<path d="M16.8744 8.1192C16.9724 8.17624 17.0801 8.20505 17.1913 8.20505C17.2507 8.20505 17.3094 8.19699 17.3688 8.18028C17.5341 8.13303 17.6742 8.02413 17.7623 7.87316C17.8534 7.71759 17.8781 7.53782 17.8332 7.36669C17.79 7.2019 17.6857 7.06419 17.5405 6.97949C17.2345 6.80087 16.8358 6.9115 16.6531 7.22552C16.5627 7.38052 16.5373 7.56029 16.5823 7.73142C16.6249 7.89679 16.7286 8.0345 16.8744 8.1192ZM17.0052 7.4318C17.0536 7.3494 17.1383 7.30216 17.2236 7.30216C17.2616 7.30216 17.3002 7.31195 17.3342 7.33212C17.3855 7.36208 17.4224 7.41106 17.4379 7.47041C17.4552 7.53609 17.4454 7.60581 17.4097 7.66689L17.4091 7.66746C17.3745 7.72681 17.3209 7.76945 17.2564 7.78731C17.1965 7.80344 17.1343 7.79768 17.0801 7.76599C17.0288 7.73603 16.9919 7.68705 16.9764 7.62771C16.9591 7.56202 16.9695 7.49288 17.0052 7.4318Z" fill="white"/>
<path d="M14.9266 12.3056C14.9266 11.8446 14.7111 11.4828 14.6863 11.443L14.4086 10.9941L14.1309 11.443C14.1061 11.4828 13.8906 11.8446 13.8906 12.3056C13.8906 12.7665 14.1061 13.1284 14.1309 13.1681L14.4086 13.617L14.6863 13.1681C14.7105 13.1284 14.9266 12.7665 14.9266 12.3056ZM14.4086 12.9964C14.4086 12.9964 14.2173 12.687 14.2173 12.3056C14.2173 11.9241 14.4086 11.6147 14.4086 11.6147C14.4086 11.6147 14.5999 11.9241 14.5999 12.3056C14.5999 12.687 14.4086 12.9964 14.4086 12.9964Z" fill="white"/>
<path d="M13.0886 14.4985C12.7624 14.8246 12.6593 15.2325 12.6483 15.2781L12.5273 15.792L13.0413 15.671C13.0868 15.6601 13.4953 15.5569 13.8209 15.2308C14.147 14.9047 14.2502 14.4967 14.2611 14.4512L14.3821 13.9373L13.8681 14.0583C13.8232 14.0692 13.4147 14.1723 13.0886 14.4985ZM13.5904 15.0003C13.3208 15.27 12.967 15.3535 12.967 15.3535C12.967 15.3535 13.0505 14.9998 13.3202 14.7301C13.5898 14.4604 13.9436 14.3769 13.9436 14.3769C13.9436 14.3769 13.8601 14.7307 13.5904 15.0003Z" fill="white"/>
<path d="M15.7281 14.4985C15.402 14.1723 14.9941 14.0692 14.9485 14.0583L14.4346 13.9373L14.5556 14.4512C14.5665 14.4967 14.6697 14.9053 14.9958 15.2308C15.3219 15.5569 15.7299 15.6601 15.7754 15.671L16.2893 15.792L16.1683 15.2781C16.1574 15.2325 16.0542 14.824 15.7281 14.4985ZM15.2268 14.9998C14.9566 14.7307 14.8736 14.3763 14.8736 14.3763C14.8736 14.3763 15.2274 14.4599 15.4971 14.7295C15.7667 14.9992 15.8503 15.353 15.8503 15.353C15.8503 15.353 15.4965 15.2694 15.2268 14.9998Z" fill="white"/>
<path d="M13.6143 13.8846C13.7445 13.8846 13.8269 13.8714 13.8269 13.8714L14.3426 13.7884L14.0453 13.3609C14.0182 13.3228 13.7705 12.9823 13.3464 12.8008C13.0923 12.6925 12.8393 12.6694 12.6717 12.6694C12.5414 12.6694 12.4591 12.6827 12.4591 12.6827L11.9434 12.7657L12.2407 13.1932C12.2678 13.2312 12.5155 13.5718 12.9396 13.7533C13.1931 13.8616 13.4466 13.8846 13.6143 13.8846ZM12.5075 13.0054C12.5075 13.0054 12.5714 12.9956 12.6711 12.9956C12.8088 12.9956 13.0145 13.014 13.2173 13.1004C13.5682 13.2502 13.7774 13.5476 13.7774 13.5476C13.7774 13.5476 13.7134 13.5573 13.6137 13.5573C13.476 13.5573 13.2703 13.5389 13.0675 13.4525C12.7166 13.3032 12.5075 13.0054 12.5075 13.0054Z" fill="white"/>
<path d="M16.3552 12.6827C16.3552 12.6827 16.2722 12.6694 16.1426 12.6694C15.9749 12.6694 15.722 12.6925 15.4679 12.8008C15.0438 12.9817 14.796 13.3223 14.7689 13.3609L14.4688 13.7878L14.9873 13.8714C14.9873 13.8714 15.0703 13.8846 15.1999 13.8846C15.3676 13.8846 15.6206 13.8616 15.8747 13.7533C16.2987 13.5723 16.5465 13.2318 16.5736 13.1932L16.8738 12.7662L16.3552 12.6827ZM15.7462 13.4531C15.5433 13.5401 15.3371 13.5579 15.1999 13.5579C15.0997 13.5579 15.0363 13.5481 15.0363 13.5481C15.0363 13.5481 15.2455 13.2508 15.5964 13.101C15.7992 13.014 16.0055 12.9961 16.1426 12.9961C16.2428 12.9961 16.3062 13.0059 16.3062 13.0059C16.3062 13.0059 16.0971 13.3032 15.7462 13.4531Z" fill="white"/>
<path d="M31.9985 15.2527C31.9985 14.9667 31.9771 14.6842 31.9434 14.4041C31.9428 14.4047 31.9423 14.4058 31.9417 14.4064C31.9492 14.3622 31.9579 14.3186 31.9579 14.2739C31.9579 13.8612 31.621 13.4904 31.0271 13.1602C30.8758 12.014 30.1317 11.1939 29.3993 10.619C30.6171 10.2418 31.9684 9.0764 31.9579 7.62212C31.9463 6.07834 30.7302 4.6601 29.176 4.29856C29.5222 3.3523 29.3964 2.39789 28.8095 1.57659C28.0161 0.467579 26.5414 -0.154353 25.1333 0.0316452C23.8058 0.206019 22.7544 1.04592 22.1432 2.40894C20.7664 1.64925 18.6276 1.62309 17.6325 2.77686C17.0572 3.44239 16.7678 4.33576 16.7539 5.32214C15.5145 5.02977 14.1987 4.98269 13 5.21926C12.79 5.18496 12.5818 5.16287 12.3794 5.17624C12.4931 4.91643 12.5569 4.62232 12.565 4.3067C12.5859 3.47901 12.2344 2.64376 11.6238 2.07298C10.6396 1.15287 9.11732 0.957568 8.06532 1.56846C7.57064 0.696589 6.74829 0.162425 5.76415 0.0851197C4.71795 0.00374544 3.68278 0.48676 3.1475 1.3191C2.83202 1.80967 2.4365 2.82453 3.12024 4.30786C2.48522 4.49095 1.88383 4.90596 1.4889 5.44827C1.29288 5.71738 1.16587 6.00045 1.09976 6.287C0.932741 6.43057 0.773839 6.58692 0.630016 6.76595C-0.802994 8.55153 0.425301 11.3438 2.04911 13.1701C1.46744 13.4979 1.13746 13.8653 1.13746 14.2739C1.13746 14.3431 1.14906 14.4111 1.16761 14.4785C1.1392 14.7348 1.11716 14.9917 1.11716 15.2533C1.11716 15.3538 1.12412 15.4538 1.12818 15.5538L1.11716 15.5555C1.11948 15.5701 1.1276 15.5829 1.12992 15.5974C1.31434 19.4342 4.55789 22.7473 9.2681 24.4561C9.07266 24.5962 8.91144 24.7822 8.91144 25.0252C8.91144 26.1894 12.9356 27.0002 16.5474 27.0002C20.1592 27.0002 24.1828 26.1888 24.1828 25.0252C24.1828 24.7845 24.0256 24.6009 23.8325 24.4614C28.6917 22.7025 31.9985 19.2389 31.9985 15.2527ZM31.0538 13.8304C31.2637 13.9827 31.3774 14.1321 31.3774 14.2733C31.3774 14.4523 31.2023 14.6436 30.8705 14.8377C30.9709 14.5064 31.0364 14.1698 31.0538 13.8304ZM18.0703 3.157C18.9124 2.18167 20.999 2.29617 22.1159 3.07446L22.4209 3.2872L22.5526 2.93845C23.0583 1.59461 24.0018 0.76692 25.2087 0.607659C26.3906 0.453629 27.6769 0.990118 28.338 1.91488C28.8675 2.65538 28.9272 3.53539 28.5056 4.39214L28.3241 4.76182L28.7323 4.80948C30.1567 4.97629 31.3681 6.26608 31.378 7.62619C31.3878 8.97758 29.7449 10.1302 28.6674 10.1662L27.7639 10.1965L28.516 10.6986C29.7687 11.5345 30.3904 12.3796 30.4721 13.3567C30.5232 13.9682 30.3973 14.5947 30.1311 15.1777C29.4799 15.4224 28.5827 15.6625 27.4617 15.8775C27.3834 15.8903 27.304 15.9031 27.2239 15.9159C27.9692 13.7357 27.8636 11.3276 26.4033 10.2238C24.3736 8.69161 20.6539 10.3639 18.8051 12.8231C18.6096 13.0829 18.4444 13.3462 18.3011 13.6113C18.2611 12.3639 17.6284 11.2654 16.6732 10.5905C19.1513 10.6516 21.1642 9.49664 21.8335 9.0607C22.1994 9.10778 22.5364 9.13684 22.8234 9.13684C24.3626 9.13684 24.8306 8.54746 24.9494 8.33124C25.0979 8.06212 25.0823 7.76278 24.9112 7.56865C24.8213 7.46693 24.6972 7.41345 24.5615 7.40183C24.5765 7.34487 24.5968 7.28849 24.6026 7.23152C24.6386 6.90661 24.5209 6.58809 24.2866 6.37942C24.0726 6.18877 23.7635 6.09519 23.4399 6.1196C23.216 6.13646 23.0136 6.20853 22.8547 6.32769C22.6541 6.47765 22.5277 6.7055 22.5242 6.92172L22.8524 6.92695C22.8542 6.81419 22.9348 6.67934 23.0519 6.59157C23.1888 6.48811 23.3523 6.45673 23.4648 6.44801C23.7003 6.42999 23.9206 6.49392 24.068 6.62587C24.2228 6.76362 24.3005 6.97636 24.2761 7.19491C24.2443 7.47797 24.0419 7.78254 23.7467 7.99063C23.5019 8.16268 23.2021 8.2766 22.8037 8.34751C22.6442 8.376 22.4847 8.39576 22.3253 8.41552C22.2591 8.42366 22.193 8.43586 22.1269 8.44458L21.9988 8.3975C21.3516 8.15919 19.6953 6.77176 19.0666 6.22423C18.5366 5.91442 17.9497 5.66798 17.3367 5.47965C17.3193 4.56942 17.5576 3.75045 18.0703 3.157ZM23.3616 14.2675C22.8257 13.8635 22.1571 13.7031 21.4797 13.817C20.8053 13.9304 20.201 14.3012 19.7794 14.8621C19.3827 15.3899 19.2244 16.0106 19.2539 16.6111C18.9738 16.6198 18.6914 16.6273 18.4067 16.6337C18.3765 16.5285 18.3521 16.4216 18.333 16.3141C18.1567 15.3009 18.4786 14.2134 19.2632 13.1689C20.5025 11.5199 22.7225 10.2081 24.4896 10.2081C25.0799 10.2081 25.6193 10.354 26.0548 10.683C27.3562 11.6653 27.3475 13.985 26.5721 16.0136C25.8727 16.1135 25.1194 16.2048 24.3202 16.285C24.3301 15.5096 24.0059 14.754 23.3616 14.2675ZM23.9891 16.3175C22.6315 16.4472 21.1503 16.5448 19.5822 16.6012C19.5538 16.0728 19.6929 15.5265 20.0426 15.0603C20.4132 14.5674 20.9433 14.2413 21.5342 14.1419C21.6583 14.121 21.7819 14.1111 21.9036 14.1111C22.3612 14.1111 22.7985 14.2553 23.1638 14.5314C23.7316 14.9598 24.0094 15.6305 23.9891 16.3175ZM16.2574 16.6535C14.9717 16.6489 13.7255 16.6157 12.5354 16.5588C11.6365 15.9392 11.0415 14.908 11.0415 13.7345C11.0415 11.8402 12.5783 10.2993 14.4683 10.2993C16.3583 10.2993 17.8957 11.8402 17.8957 13.7345C17.8957 14.9702 17.2369 16.0484 16.2574 16.6535ZM17.8279 16.6442C17.5385 16.6483 17.2468 16.6512 16.9534 16.6523C17.2503 16.3983 17.5101 16.1025 17.7189 15.7706C17.7183 15.9868 17.7305 16.2013 17.7676 16.4129C17.7815 16.4913 17.8082 16.5669 17.8279 16.6442ZM11.5449 11.0916C11.6139 11.073 11.6737 11.0526 11.7398 11.0334C11.3645 11.4142 11.0717 11.8733 10.8797 12.3831C10.8339 12.2773 10.7922 12.1709 10.7574 12.0628C10.6773 11.817 10.6025 11.5694 10.5289 11.3223C10.8246 11.2689 11.1593 11.1956 11.5449 11.0916ZM10.4094 10.9242C10.1699 10.1186 9.92226 9.32226 9.54414 8.57711C9.65027 8.32136 9.76858 8.06619 9.91588 7.81335C10.0748 7.54249 10.2725 7.30476 10.4918 7.08679C10.9917 8.7509 12.9733 9.49315 13.8113 9.73611C13.4482 9.9471 12.6288 10.3726 11.4376 10.694C11.0386 10.8015 10.7023 10.873 10.4094 10.9242ZM22.2307 8.77996L22.2609 8.75787C22.2957 8.75206 22.3305 8.74567 22.3653 8.74102C22.5306 8.72067 22.6958 8.70033 22.8611 8.67069C23.3082 8.59047 23.6492 8.4597 23.9357 8.25917C24.1381 8.11618 24.2999 7.93774 24.4159 7.74476C24.5186 7.71454 24.609 7.72442 24.6641 7.78661C24.743 7.87554 24.7418 8.02667 24.6612 8.17256C24.442 8.57071 23.6898 8.90842 22.2307 8.77996ZM18.7314 6.68864C18.9199 6.85488 20.361 8.11618 21.326 8.69684C20.2996 9.31529 17.4504 10.7248 14.4324 9.57336C14.3506 7.87089 16.0968 6.27363 16.5764 5.86851C17.3529 6.04346 18.0929 6.31665 18.7314 6.68864ZM16.0626 5.76969C15.3881 6.38291 14.0659 7.78138 14.0166 9.36411C13.2847 9.15835 11.1935 8.42947 10.8409 6.7799C12.1533 5.75516 14.1732 5.46105 16.0626 5.76969ZM3.58593 4.80134L4.00812 4.74612L3.80282 4.37296C3.22985 3.32905 3.16954 2.35604 3.63464 1.63297C4.05625 0.978493 4.87628 0.599521 5.7195 0.663458C6.59577 0.732045 7.31373 1.25982 7.6901 2.11192L7.8432 2.45776L8.13723 2.22061C8.95087 1.56439 10.3653 1.69052 11.2283 2.49729C11.7119 2.94949 12.0019 3.63653 11.9851 4.29101C11.9729 4.75949 11.8041 5.15474 11.509 5.40293L10.0475 6.63459L10.1722 6.58227C9.88108 6.85662 9.62591 7.16875 9.42004 7.52273C9.33537 7.66862 9.25882 7.81509 9.18807 7.96215C9.10282 7.83137 9.01757 7.70001 8.92072 7.57388C7.50858 5.74005 4.29808 4.70427 2.04795 5.69064C2.43302 5.22332 3.01817 4.87574 3.58593 4.80134ZM1.89601 6.45614C3.70539 5.41572 6.48327 5.95104 7.96035 7.35998C9.18401 8.52654 9.64621 10.2406 10.0893 11.8158C10.2267 12.3052 10.4268 12.7638 10.6721 13.1974C10.6472 13.3735 10.6304 13.5514 10.6304 13.7345C10.6304 13.7729 10.6356 13.8101 10.6367 13.8478L7.91106 11.9187L5.92305 7.05425L5.61859 7.17921L7.41116 11.5641L4.4622 9.47745L3.6822 7.17049L3.37077 7.27628L4.0058 9.15486L1.69941 7.52273L1.51035 7.79184L7.64255 12.1314L7.64429 12.1361L7.64719 12.1349L10.6733 14.2762C10.6843 14.3558 10.6982 14.4343 10.7144 14.5122C10.5428 14.4674 10.3473 14.4651 10.0522 14.5122C9.14515 14.6575 8.30483 14.9324 7.36882 14.9377C5.23641 14.9499 3.28726 14.0269 2.06941 12.2506C0.93912 10.6033 -0.372105 7.76046 1.89601 6.45614ZM2.44868 13.5915C2.90799 14.046 3.38237 14.4192 3.82718 14.6627C5.31354 15.4759 7.03826 15.6671 8.69686 15.412C9.47571 15.2922 10.2267 14.9999 10.9737 15.312C11.1807 15.7706 11.4747 16.1804 11.8349 16.5221C9.42352 16.3844 7.27023 16.1496 5.53856 15.8584C3.07559 15.3771 1.71739 14.7767 1.71739 14.2739C1.71739 14.0582 1.9714 13.8252 2.44868 13.5915ZM16.5474 26.419C12.3765 26.419 9.59866 25.4466 9.49021 25.0351C9.49079 25.0339 9.55632 24.8967 10.0371 24.7154C12.0181 25.3402 14.2265 25.6919 16.5573 25.6919C18.8834 25.6919 21.0877 25.342 23.0658 24.7194C23.5164 24.8892 23.597 25.0194 23.6028 25.0194C23.4921 25.4477 20.7154 26.419 16.5474 26.419ZM16.5578 25.11C9.06744 25.11 2.85753 21.4139 1.84555 16.6273C3.42007 17.7945 7.13627 18.0037 9.34117 18.1258C9.56792 18.138 9.7738 18.1496 9.95416 18.1613C12.3939 18.3153 14.9108 18.4379 17.4544 18.4379C20.3935 18.4379 23.3686 18.274 26.2984 17.8049L26.2462 17.4795C20.814 18.349 15.2153 18.163 9.97445 17.8323C9.79351 17.8206 9.58648 17.809 9.35915 17.7968C7.18962 17.6765 2.96656 17.4423 1.75972 16.1281C1.72957 15.9031 1.70695 15.6764 1.69999 15.4468C2.44056 15.7776 3.51982 16.0664 4.81364 16.3111C7.78695 16.9726 12.1811 17.3126 16.5474 17.3126C20.8563 17.3126 25.1948 16.9819 28.1652 16.3379C29.521 16.0874 30.6484 15.7892 31.4151 15.4468C31.2585 20.7931 24.6537 25.11 16.5578 25.11Z" fill="white"/>
</svg>
