<svg width="26" height="28" viewBox="0 0 26 28" fill="none" xmlns="http://www.w3.org/2000/svg">
<path d="M20.4635 8.3946C20.4635 4.27766 17.1246 0.938721 13.0076 0.938721C8.89069 0.938721 5.55176 4.27766 5.55176 8.3946C5.55176 12.5115 8.89069 15.8505 13.0076 15.8505C17.1246 15.8505 20.4635 12.5115 20.4635 8.3946ZM7.49677 8.3946C7.49677 5.34741 9.96045 2.88373 13.0076 2.88373C16.0548 2.88373 18.5185 5.34741 18.5185 8.3946C18.5185 11.4418 16.0548 13.9055 13.0076 13.9055C9.96045 13.9055 7.49677 11.4418 7.49677 8.3946Z" fill="white"/>
<path d="M0.526339 27.2617C0.688423 27.359 0.850508 27.3914 1.01259 27.3914C1.33676 27.3914 1.69335 27.2293 1.85543 26.9051C4.12461 22.8854 8.40363 20.3893 13.0068 20.3893C17.61 20.3893 21.889 22.8854 24.1906 26.9051C24.45 27.359 25.0659 27.5211 25.5197 27.2617C25.9736 27.0024 26.1356 26.3865 25.8763 25.9326C23.2505 21.3294 18.3232 18.4443 13.0068 18.4443C7.69046 18.4443 2.7631 21.3294 0.137337 25.9326C-0.121998 26.3865 0.0400866 27.0024 0.526339 27.2617Z" fill="white"/>
</svg>
