<svg width="36" height="26" viewBox="0 0 36 26" fill="none" xmlns="http://www.w3.org/2000/svg">
<path d="M35.0665 2.13496C35.0641 2.13496 35.0618 2.13496 35.0595 2.13496H32.7098V1.33091C32.7224 1.01267 32.5165 0.726654 32.2107 0.637758C30.5794 0.210257 28.8995 -0.00409953 27.2131 5.93704e-05C24.4405 5.93704e-05 20.6628 0.623895 17.8694 3.46581C15.0968 0.596169 11.2914 5.93704e-05 8.52575 5.93704e-05C6.83931 -0.00409953 5.15946 0.210257 3.52813 0.637758C3.22228 0.726654 3.01642 1.01267 3.02907 1.33091V2.12803H0.69315C0.310358 2.12803 0 2.43839 0 2.82118V24.9604C0 25.3432 0.310358 25.6535 0.69315 25.6535C0.812199 25.6532 0.929168 25.6222 1.03279 25.5634C1.10211 25.5288 8.03361 21.7372 17.71 24.1771H17.814H17.8763C17.9316 24.1838 17.9874 24.1838 18.0427 24.1771C27.7468 21.7165 34.6783 25.5011 34.7199 25.5634C34.9343 25.6872 35.1986 25.6872 35.413 25.5634C35.6262 25.4404 35.7581 25.2135 35.7596 24.9673V2.82811C35.7596 2.44532 35.4493 2.13496 35.0665 2.13496ZM1.3863 23.8583V3.52126H3.04293V20.9055C3.0386 21.2883 3.3454 21.6021 3.72819 21.6064C3.76562 21.6068 3.80305 21.6042 3.84005 21.5986C5.27401 21.3797 6.72174 21.2638 8.17224 21.252C10.1815 21.2172 12.1824 21.5194 14.0917 22.1462C9.77991 21.6248 5.40631 22.2141 1.3863 23.8583ZM8.17224 19.8727C6.91149 19.8755 5.65221 19.9565 4.4015 20.1153V1.8785C5.75107 1.57784 7.12922 1.4244 8.51188 1.42102C11.1043 1.42102 14.6809 2.01713 17.1624 4.81745L17.1832 22.0838C15.7414 21.1411 12.9272 19.8727 8.17224 19.8727ZM18.5695 4.81745C21.051 2.04485 24.6276 1.42102 27.22 1.42102C28.6026 1.42509 29.9807 1.57845 31.3304 1.8785V20.1153C30.0867 19.9551 28.8344 19.8717 27.5804 19.8657C22.8532 19.8657 20.032 21.1342 18.5695 22.0769V4.81745ZM34.3664 23.8583C30.3378 22.2096 25.9541 21.6202 21.6332 22.1462C23.5516 21.5172 25.562 21.2149 27.5804 21.252C29.04 21.2602 30.4971 21.3737 31.9404 21.5917C32.3188 21.6491 32.6722 21.3889 32.7297 21.0104C32.7353 20.9734 32.7379 20.936 32.7375 20.8985V3.52126H34.3941L34.3664 23.8583Z" fill="white"/>
</svg>
