<svg width="88" height="84" viewBox="0 0 88 84" fill="none" xmlns="http://www.w3.org/2000/svg">
<path d="M42.635 66.3041L65.0572 72.056C65.6822 72.2163 66.2711 71.617 66.1102 70.9789L60.4871 48.076L54.8641 25.1731C54.7031 24.535 53.9239 24.3351 53.4521 24.8109L36.6529 41.9619L19.8537 59.113C19.3819 59.5888 19.58 60.3899 20.205 60.5503L42.635 66.3041Z" stroke="#033498" stroke-width="1.4268" stroke-miterlimit="10"/>
<path opacity="0.4" d="M33.7522 59.4501L56.1744 65.2019C56.7994 65.3622 57.3883 64.763 57.2274 64.1249L51.6043 41.222L45.9813 18.3191C45.8204 17.681 45.041 17.4811 44.5693 17.9569L27.77 35.1079L10.9708 52.259C10.4991 52.7348 10.6972 53.5359 11.3222 53.6962L33.7522 59.4501Z" fill="#033498"/>
</svg>
