<svg width="89" height="89" viewBox="0 0 89 89" fill="none" xmlns="http://www.w3.org/2000/svg">
<path d="M67.6957 52.0539L79.0549 31.8843C79.3715 31.3221 78.9451 30.5982 78.2871 30.5885L54.7092 30.0923L31.1314 29.596C30.4733 29.5863 30.0786 30.2873 30.4161 30.8661L42.6347 51.5319L54.8534 72.1977C55.1909 72.7766 56.016 72.7926 56.3327 72.2304L67.6957 52.0539Z" stroke="#033498" stroke-width="1.4268" stroke-miterlimit="10"/>
<path opacity="0.4" d="M58.7758 58.86L70.135 38.6905C70.4516 38.1283 70.0252 37.4044 69.3672 37.3947L45.7893 36.8984L22.2115 36.4021C21.5534 36.3924 21.1586 37.0934 21.4961 37.6723L33.7148 58.3381L45.9335 79.0039C46.271 79.5827 47.0961 79.5987 47.4127 79.0365L58.7758 58.86Z" fill="#033498"/>
</svg>
