<svg width="23" height="31" viewBox="0 0 23 31" fill="none" xmlns="http://www.w3.org/2000/svg">
<path d="M5.78291 30.9246C5.78338 30.8832 6.07993 28.9241 6.44191 26.5709L7.10007 22.2925L3.66817 17.5069C1.78063 14.8748 0.184935 12.6253 0.122185 12.5077C-0.055394 12.1755 -0.0397328 11.8255 0.171292 11.408C0.261011 11.2298 1.29639 9.64181 2.47202 7.87793C4.34916 5.06162 4.63114 4.65914 4.78658 4.57389C4.99548 4.46023 5.13292 4.45248 5.40264 4.54031C5.6203 4.61264 12.3632 7.74463 12.5319 7.85236C12.681 7.94794 12.7121 8.17372 12.6205 8.49457C12.4979 8.92417 12.2944 9.24708 11.9106 9.62192C11.3156 10.2029 10.6467 10.4607 9.73913 10.4589C9.02082 10.4574 8.29036 10.2781 7.53592 9.91615C7.36896 9.83607 7.22581 9.77149 7.21774 9.77149C7.19916 9.77149 6.15813 11.7229 6.15813 11.7601C6.15813 11.7859 6.45678 11.9332 6.82181 12.1107C7.94988 12.657 8.75254 13.1993 9.59285 13.9828C11.4447 15.71 12.6043 17.9004 13.4157 21.2039C13.4396 21.2995 13.5848 20.6265 13.9666 18.6635C14.2539 17.1858 14.5053 15.9975 14.5295 16.0021C14.5534 16.0021 15.3136 16.3819 16.2184 16.8353C17.1233 17.2886 17.8894 17.65 17.9209 17.6381C17.9525 17.6123 18.8628 16.7255 19.9438 15.6361C21.0248 14.5467 21.9273 13.6537 21.9493 13.6511C22.0064 13.6511 21.944 15.1884 21.8673 15.6431C21.8331 15.8497 21.7627 16.1414 21.7112 16.2922C21.6598 16.4421 20.8121 18.1496 19.8277 20.0845L18.0379 23.6027V27.3012V31H11.91C6.10311 31 5.78208 30.9995 5.78291 30.9246ZM13.2369 27.45C13.4745 26.084 13.6803 25.0176 13.7121 24.9869C13.7429 24.9559 14.1764 24.6484 14.6753 24.301C15.3891 23.8034 15.5493 23.6748 15.4274 23.6973C14.3547 23.8936 13.415 23.9194 12.695 23.7722C12.2247 23.6766 11.6944 23.5012 11.0472 23.2307L10.6711 23.0731L11.6058 23.9902L12.5405 24.9073L12.6361 27.0819C12.7319 29.262 12.7781 30.0442 12.8041 29.9238C12.8121 29.8876 13.0065 28.775 13.2369 27.45ZM17.5733 16.1912C16.9131 15.8192 15.862 14.5914 15.9861 14.3372C16.0405 14.2261 20.7288 9.2122 20.8055 9.18353C21.1672 9.0492 22.8643 11.0254 22.9772 11.7134C23.0078 11.8994 23.3175 11.6074 20.2722 14.2675C18.9825 15.3938 17.8974 16.3152 17.8609 16.3155C17.8242 16.3158 17.695 16.2584 17.5733 16.1912ZM15.0273 13.6803C14.0665 13.0649 12.6931 11.7149 12.7867 11.4778C12.7999 11.4468 13.8483 10.0412 15.1177 8.35636C17.0829 5.74852 17.4418 5.29334 17.534 5.29334C18.1072 5.29334 20.0819 7.00297 20.5538 7.90764C20.7401 8.26465 20.8842 8.07814 18.0964 11.0866C16.1257 13.2135 15.5186 13.8435 15.4307 13.8531C15.3558 13.8531 15.2178 13.8017 15.0273 13.6803ZM13.0099 10.073C13.1875 9.41525 13.2661 8.85958 13.251 8.37212C13.2324 7.81051 13.1766 7.62942 12.9494 7.41113C12.8833 7.34655 12.314 7.03578 11.6839 6.71829C11.0539 6.40054 10.5332 6.13705 10.5267 6.13266C10.5214 6.13266 11.0789 5.20603 11.7682 4.08358L13.0213 2.04252H13.3064C13.536 2.0451 13.6713 2.08127 14.0033 2.22077C15.3729 2.80175 17.0706 4.11329 16.9644 4.50854C16.9485 4.57054 13.0902 10.0678 13.0028 10.1536C12.9896 10.1536 12.9949 10.1277 13.0108 10.0683L13.0099 10.073ZM7.97218 4.96449C6.97444 4.50363 6.14313 4.112 6.12479 4.09417C6.08391 4.05543 8.3156 0.127779 8.42491 0.0469216C8.62691 -0.10291 9.48226 0.116671 10.4056 0.554798C11.4656 1.05699 12.2418 1.64676 12.2418 1.94978C12.2418 2.05053 9.89725 5.81078 9.83702 5.80638C9.80915 5.80406 8.96988 5.42535 7.97218 4.96449Z" fill="white"/>
</svg>
